<?xml version="1.0" encoding="UTF-8" standalone="no"?>
<!DOCTYPE svg PUBLIC "-//W3C//DTD SVG 1.1//EN" "http://www.w3.org/Graphics/SVG/1.1/DTD/svg11.dtd">
<svg width="100%" height="100%" viewBox="0 0 3300 873" version="1.1" xmlns="http://www.w3.org/2000/svg" xmlns:xlink="http://www.w3.org/1999/xlink" xml:space="preserve" xmlns:serif="http://www.serif.com/" style="fill-rule:evenodd;clip-rule:evenodd;stroke-linejoin:round;stroke-miterlimit:2;">
    <g id="Layer-1" serif:id="Layer 1" transform="matrix(4.16667,0,0,4.16667,0,0)">
        <g transform="matrix(1,0,0,1,46.1073,93.4935)">
            <path d="M0,-14.167L7.374,-14.167C16.559,-14.167 23.06,-15.492 26.878,-18.145C30.565,-20.602 32.408,-24.903 32.408,-31.05C32.408,-36.935 30.613,-41.156 27.023,-43.713C23.433,-46.267 17.012,-47.546 7.762,-47.546L0,-47.546L0,-14.167ZM0,63.943L-36.387,63.943L-36.387,-78.11L4.128,-78.11C19.867,-78.11 31.041,-77.333 37.648,-75.781C44.115,-74.098 49.518,-71.447 53.852,-67.824C59.027,-63.49 63.005,-58.121 65.787,-51.717C68.567,-45.183 69.959,-37.905 69.959,-29.886C69.959,-21.347 68.567,-13.908 65.787,-7.569C63.327,-1.165 59.349,4.14 53.852,8.344C49.906,11.449 45.151,13.681 39.589,15.04C34.606,16.398 25.939,17.077 13.584,17.077L0,17.077L0,63.943Z" style="fill:rgb(214,0,55);fill-rule:nonzero;"/>
        </g>
        <g transform="matrix(1,0,0,1,133.532,57.3008)">
            <path d="M0,100.136L0,2.135L32.602,2.135L32.602,25.228C36.03,16.755 40.591,10.447 46.284,6.307C52.169,2.102 59.252,0 67.533,0C69.409,0 70.799,0.065 71.706,0.194C72.417,0.259 73.064,0.308 73.646,0.34C74.228,0.373 74.971,0.453 75.878,0.583L72.579,32.02C70.185,31.244 68.116,30.696 66.369,30.37C63.781,30.113 61.872,29.982 60.644,29.982C52.235,29.982 45.733,32.57 41.141,37.745C36.613,42.855 34.349,50.133 34.349,59.577L34.349,100.136L0,100.136Z" style="fill:rgb(214,0,55);fill-rule:nonzero;"/>
        </g>
        <g transform="matrix(45.2599,106.127,106.127,-45.2599,243.75,44.176)">
            <path d="M0.148,-0.003C0.147,-0.065 0.157,-0.125 0.179,-0.182C0.2,-0.241 0.233,-0.291 0.275,-0.334C0.316,-0.378 0.365,-0.412 0.422,-0.436C0.481,-0.461 0.539,-0.473 0.597,-0.471C0.655,-0.473 0.714,-0.462 0.773,-0.436C0.832,-0.41 0.883,-0.376 0.925,-0.334C0.966,-0.293 1,-0.241 1.027,-0.179C1.053,-0.118 1.067,-0.057 1.068,0.002C1.07,0.058 1.059,0.118 1.036,0.182C1.015,0.238 0.983,0.289 0.94,0.335C0.9,0.378 0.852,0.412 0.794,0.437C0.737,0.461 0.679,0.473 0.619,0.472C0.558,0.474 0.499,0.462 0.442,0.435C0.385,0.411 0.335,0.377 0.291,0.333C0.25,0.29 0.216,0.239 0.19,0.178C0.164,0.116 0.15,0.056 0.148,-0.003Z" style="fill:url(#_Linear1);fill-rule:nonzero;"/>
        </g>
        <g transform="matrix(1,0,0,1,376.787,148.462)">
            <path d="M0,-39.686C0,-32.067 2.033,-26.032 6.1,-21.577C9.843,-17.25 15.265,-15.088 22.366,-15.088C29.401,-15.088 34.888,-17.25 38.825,-21.577C42.763,-26.095 44.732,-32.132 44.732,-39.686C44.732,-47.368 42.763,-53.372 38.825,-57.699C34.822,-62.088 29.337,-64.284 22.366,-64.284C15.33,-64.284 9.908,-62.088 6.1,-57.699C2.033,-53.437 0,-47.434 0,-39.686M-30.662,52.251L-30.662,-88.821L1.164,-88.821L1.164,-72.462C5.369,-78.759 10.318,-83.66 16.011,-87.166C21.379,-90.347 27.492,-91.937 34.35,-91.937C41.27,-91.937 47.48,-90.788 52.98,-88.492C58.476,-86.196 63.264,-82.719 67.34,-78.062C75.425,-68.81 79.469,-56.035 79.469,-39.734C79.469,-24.079 75.425,-11.434 67.34,-1.796C63.199,3.121 58.525,6.776 53.319,9.169C48.112,11.561 42.175,12.759 35.514,12.759C27.169,12.759 20.409,11.239 15.234,8.199C10.252,5.288 5.628,0.242 1.358,-6.938C1.682,-5.385 1.941,-2.992 2.135,0.242C2.264,2.119 2.329,5.547 2.329,10.528L2.329,52.251L-30.662,52.251Z" style="fill-rule:nonzero;"/>
        </g>
        <g transform="matrix(1,0,0,1,477.118,8.2118)">
            <path d="M0,149.225L0,0L33.96,0L33.96,51.612C33.96,54.135 33.83,57.401 33.572,61.412C33.379,64.905 33.118,67.559 32.795,69.368C37.126,62.059 42.231,56.691 48.111,53.261C54.056,49.833 61.069,48.119 69.146,48.119C75.544,48.119 81.231,49.089 86.206,51.03C91.138,53.23 95.126,56.206 98.175,59.957C100.963,63.709 102.811,67.687 103.721,71.891C104.823,77.262 105.374,84.344 105.374,93.141L105.374,149.225L70.638,149.225L70.638,96.731C70.638,88.774 69.38,83.084 66.864,79.653C64.348,76.097 60.249,74.317 54.573,74.317C47.476,74.317 42.25,76.97 38.895,82.274C35.606,87.579 33.96,96.182 33.96,108.084L33.96,149.225L0,149.225Z" style="fill-rule:nonzero;"/>
        </g>
        <g transform="matrix(1,0,0,1,674.381,121.73)">
            <path d="M0,-25.908C-0.583,-31.342 -2.685,-35.772 -6.308,-39.201C-9.931,-42.629 -14.361,-44.344 -19.601,-44.344C-25.1,-44.344 -29.563,-42.823 -32.99,-39.783C-36.55,-36.354 -38.781,-31.73 -39.686,-25.908L0,-25.908ZM34.057,-6.404L-40.462,-6.404C-40.268,1.229 -38.361,7.051 -34.738,11.061C-30.987,15.202 -25.553,17.271 -18.437,17.271C-13.262,17.271 -8.83,16.268 -5.143,14.263C-1.392,12.128 1.325,9.217 3.007,5.53L29.012,16.009C25.971,23.449 20.473,29.205 12.516,33.281C4.624,37.42 -5.046,39.491 -16.496,39.491C-33.574,39.491 -47.288,34.704 -57.637,25.13C-67.922,15.815 -73.065,3.364 -73.065,-12.226C-73.065,-27.427 -67.922,-40.137 -57.637,-50.36C-47.351,-60.386 -34.286,-65.399 -18.437,-65.399C-2.266,-65.399 10.511,-60.32 19.891,-50.166C24.677,-44.926 28.235,-38.828 30.564,-31.875C32.893,-24.921 34.057,-16.981 34.057,-8.054L34.057,-6.404Z" style="fill-rule:nonzero;"/>
        </g>
        <g transform="matrix(1,0,0,1,733.667,30.2288)">
            <path d="M0,127.208L-0.195,53.659L-14.846,53.659L-14.846,29.207L-0.195,29.207L-0.195,0L34.155,0L34.155,29.207L48.612,29.207L48.612,53.659L34.155,53.659L34.155,127.208L0,127.208Z" style="fill-rule:nonzero;"/>
        </g>
        <g transform="matrix(1,0,0,1,295.606,69.0056)">
            <path d="M0,42.06L-9.217,42.06C-10.384,42.06 -11.331,41.114 -11.331,39.946L-11.331,2.114C-11.331,0.946 -10.384,0 -9.217,0L0,0C1.167,0 2.114,0.946 2.114,2.114L2.114,39.946C2.114,41.114 1.167,42.06 0,42.06" style="fill:white;fill-rule:nonzero;"/>
        </g>
        <g transform="matrix(1,0,0,1,279.476,77.4558)">
            <path d="M0,41.92L-9.224,41.92C-10.39,41.92 -11.334,40.975 -11.334,39.81L-11.334,2.11C-11.334,0.945 -10.39,0 -9.224,0L0,0C1.165,0 2.11,0.945 2.11,2.11L2.11,39.81C2.11,40.975 1.165,41.92 0,41.92" style="fill:white;fill-rule:nonzero;"/>
        </g>
        <g transform="matrix(1,0,0,1,263.551,88.3388)">
            <path d="M0,34.03L-9.642,34.03C-10.692,34.03 -11.543,33.179 -11.543,32.129L-11.543,1.902C-11.543,0.852 -10.692,0 -9.642,0L0,0C1.05,0 1.901,0.852 1.901,1.902L1.901,32.129C1.901,33.179 1.05,34.03 0,34.03" style="fill:white;fill-rule:nonzero;"/>
        </g>
        <g transform="matrix(1,0,0,1,247.175,99.7628)">
            <path d="M0,22.606L-10.345,22.606C-11.201,22.606 -11.895,21.912 -11.895,21.056L-11.895,1.549C-11.895,0.693 -11.201,0 -10.345,0L0,0C0.856,0 1.55,0.693 1.55,1.549L1.55,21.056C1.55,21.912 0.856,22.606 0,22.606" style="fill:white;fill-rule:nonzero;"/>
        </g>
        <g transform="matrix(1,0,0,1,326.041,129.984)">
            <path d="M0,-73.653L-6.201,-58.942L-0.908,-61.193C-2.1,-56.222 -4.159,-51.524 -6.808,-47.238C-9.894,-42.218 -13.801,-37.759 -18.168,-33.873C-26.909,-26.092 -37.407,-20.493 -48.38,-17.199C-59.361,-13.917 -70.89,-12.948 -81.816,-14.628C-91.8,-16.139 -101.161,-19.873 -109.375,-25.248C-110.173,-16.371 -108.457,-9.561 -106.621,-4.589C-98.939,-2.087 -90.964,-0.64 -83.017,-0.415C-69.741,0 -56.704,-2.792 -44.945,-7.904C-33.19,-13.038 -22.575,-20.514 -14.214,-29.972C-10.041,-34.694 -6.457,-39.943 -3.833,-45.637C-1.525,-50.612 0.054,-55.926 0.633,-61.313L6.209,-58.945L0,-73.653Z" style="fill-rule:nonzero;"/>
        </g>
    </g>
    <defs>
        <linearGradient id="_Linear1" x1="0" y1="0" x2="1" y2="0" gradientUnits="userSpaceOnUse" gradientTransform="matrix(1,0,0,-1,0,0.00054981)"><stop offset="0" style="stop-color:rgb(212,31,57);stop-opacity:1"/><stop offset="0.51" style="stop-color:rgb(212,31,57);stop-opacity:1"/><stop offset="1" style="stop-color:rgb(158,41,32);stop-opacity:1"/></linearGradient>
    </defs>
</svg>
