<?xml version="1.0" encoding="UTF-8" standalone="no"?>
<!DOCTYPE svg PUBLIC "-//W3C//DTD SVG 1.1//EN" "http://www.w3.org/Graphics/SVG/1.1/DTD/svg11.dtd">
<svg width="100%" height="100%" viewBox="0 0 1508 1366" version="1.1" xmlns="http://www.w3.org/2000/svg" xmlns:xlink="http://www.w3.org/1999/xlink" xml:space="preserve" xmlns:serif="http://www.serif.com/" style="fill-rule:evenodd;clip-rule:evenodd;stroke-linejoin:round;stroke-miterlimit:2;">
    <g transform="matrix(3.125,0,0,3.125,0,0)">
        <g transform="matrix(188.583,442.194,442.194,-188.583,113.688,-50.6445)">
            <path d="M0.148,-0.003C0.147,-0.065 0.157,-0.125 0.179,-0.182C0.2,-0.241 0.233,-0.291 0.275,-0.334C0.316,-0.378 0.365,-0.412 0.422,-0.436C0.481,-0.461 0.539,-0.473 0.597,-0.471C0.655,-0.473 0.714,-0.462 0.773,-0.436C0.832,-0.41 0.883,-0.376 0.925,-0.334C0.966,-0.293 1,-0.241 1.027,-0.179C1.053,-0.118 1.067,-0.057 1.068,0.002C1.07,0.058 1.059,0.118 1.036,0.182C1.015,0.238 0.983,0.289 0.94,0.335C0.9,0.378 0.852,0.412 0.794,0.437C0.737,0.461 0.679,0.473 0.619,0.472C0.558,0.474 0.499,0.462 0.442,0.435C0.385,0.411 0.335,0.377 0.291,0.333C0.25,0.29 0.216,0.239 0.19,0.178C0.164,0.116 0.15,0.056 0.148,-0.003Z" style="fill:url(#_Linear1);fill-rule:nonzero;"/>
        </g>
        <g transform="matrix(4.16667,0,0,4.16667,329.753,52.8121)">
            <path d="M0,42.06L-9.217,42.06C-10.384,42.06 -11.331,41.114 -11.331,39.946L-11.331,2.114C-11.331,0.946 -10.384,0 -9.217,0L0,0C1.167,0 2.114,0.946 2.114,2.114L2.114,39.946C2.114,41.114 1.167,42.06 0,42.06" style="fill:white;fill-rule:nonzero;"/>
        </g>
        <g transform="matrix(4.16667,0,0,4.16667,262.544,88.0213)">
            <path d="M0,41.92L-9.224,41.92C-10.39,41.92 -11.334,40.975 -11.334,39.81L-11.334,2.11C-11.334,0.945 -10.39,0 -9.224,0L0,0C1.165,0 2.11,0.945 2.11,2.11L2.11,39.81C2.11,40.975 1.165,41.92 0,41.92" style="fill:white;fill-rule:nonzero;"/>
        </g>
        <g transform="matrix(4.16667,0,0,4.16667,196.191,133.367)">
            <path d="M0,34.03L-9.642,34.03C-10.692,34.03 -11.543,33.179 -11.543,32.129L-11.543,1.902C-11.543,0.852 -10.692,0 -9.642,0L0,0C1.05,0 1.901,0.852 1.901,1.902L1.901,32.129C1.901,33.179 1.05,34.03 0,34.03" style="fill:white;fill-rule:nonzero;"/>
        </g>
        <g transform="matrix(4.16667,0,0,4.16667,127.96,180.967)">
            <path d="M0,22.606L-10.345,22.606C-11.201,22.606 -11.895,21.912 -11.895,21.056L-11.895,1.549C-11.895,0.693 -11.201,0 -10.345,0L0,0C0.856,0 1.55,0.693 1.55,1.549L1.55,21.056C1.55,21.912 0.856,22.606 0,22.606" style="fill:white;fill-rule:nonzero;"/>
        </g>
        <g transform="matrix(4.16667,0,0,4.16667,456.566,306.887)">
            <path d="M0,-73.653L-6.201,-58.942L-0.908,-61.193C-2.1,-56.222 -4.159,-51.524 -6.808,-47.238C-9.894,-42.218 -13.801,-37.759 -18.168,-33.873C-26.909,-26.092 -37.407,-20.493 -48.38,-17.199C-59.361,-13.917 -70.89,-12.948 -81.816,-14.628C-91.8,-16.139 -101.161,-19.873 -109.375,-25.248C-110.173,-16.371 -108.457,-9.561 -106.621,-4.589C-98.939,-2.087 -90.964,-0.64 -83.017,-0.415C-69.741,0 -56.704,-2.792 -44.945,-7.904C-33.19,-13.038 -22.575,-20.514 -14.214,-29.972C-10.041,-34.694 -6.457,-39.943 -3.833,-45.637C-1.525,-50.612 0.054,-55.926 0.633,-61.313L6.209,-58.945L0,-73.653Z" style="fill-rule:nonzero;"/>
        </g>
    </g>
    <defs>
        <linearGradient id="_Linear1" x1="0" y1="0" x2="1" y2="0" gradientUnits="userSpaceOnUse" gradientTransform="matrix(1,0,0,-1,0,0.00054981)"><stop offset="0" style="stop-color:rgb(212,31,57);stop-opacity:1"/><stop offset="0.51" style="stop-color:rgb(212,31,57);stop-opacity:1"/><stop offset="1" style="stop-color:rgb(158,41,32);stop-opacity:1"/></linearGradient>
    </defs>
</svg>
